<?xml version="1.0" encoding="utf-8"?>
<!-- Generator: Adobe Illustrator 16.0.0, SVG Export Plug-In . SVG Version: 6.00 Build 0)  -->
<!DOCTYPE svg PUBLIC "-//W3C//DTD SVG 1.1//EN" "http://www.w3.org/Graphics/SVG/1.1/DTD/svg11.dtd">
<svg version="1.1" id="Layer_1" xmlns="http://www.w3.org/2000/svg" xmlns:xlink="http://www.w3.org/1999/xlink" x="0px" y="0px"
	 width="280.4px" height="50px" viewBox="0 0 280.4 50" style="enable-background:new 0 0 280.4 50;" xml:space="preserve">
<style type="text/css">
<![CDATA[
	.st0{fill:#cc0000;}
	.st1{fill:#cc0000;}
	.logo-wrap:hover .st1 {transform: rotateZ(30deg); transform-origin: center;}
	.st1:hover {transform: rotateZ(30deg); transform-origin: center;}
]]>
</style>
<g>
	<g>
		<path class="st0" d="M60.1,14.9h18.7v4.4H64.6v3.5h11.5v4.4H64.6v7.9h-4.4V14.9z"/>
		<path class="st0" d="M100.6,19.1v5.2c0,1.1-0.4,2.1-1.2,2.9c-0.8,0.8-1.8,1.2-3,1.2h-0.2l4.4,5.2v1.5h-4.5l-5.6-6.7l-5.8,0
			c0.1,0,0.1,0.1,0.1,0.2c0,0-0.1,0-0.1,0v6.5h-4.4V14.9h16.1c1.1,0,2.1,0.4,3,1.2C100.2,17,100.6,17.9,100.6,19.1z M84.7,19.3v4.8
			h11.5v-4.8H84.7z"/>
		<path class="st0" d="M122.4,14.9v4.4h-14.3v3.5h11.5v4.4h-11.5v3.5h14.3v4.4h-18.7V14.9H122.4z"/>
		<path class="st0" d="M143.9,14.9v4.4h-14.3v3.5h11.5v4.4h-11.5v3.5h14.3v4.4h-18.7V14.9H143.9z"/>
		<path class="st0" d="M146.7,35.1V14.9h4.4v15.9H167v4.4H146.7z"/>
		<path class="st0" d="M172.8,14.9h11.9c1.2,0,2.2,0.4,3,1.2c0.8,0.8,1.2,1.8,1.2,2.9v16.1h-4.4v-6.5H173v6.5h-4.4V19.1
			c0-1.2,0.4-2.1,1.2-3C170.7,15.3,171.6,14.9,172.8,14.9z M173,24.2h11.5v-4.9H173V24.2z"/>
		<path class="st0" d="M207.9,28.4V14.9h4.4v20.2h-4.5l-11.4-13.6v13.6h-4.4V14.9h4.5L207.9,28.4z"/>
		<path class="st0" d="M235.7,19.3h-15.8v11.5h15.8v4.4h-16c-1.2,0-2.1-0.4-3-1.2c-0.8-0.8-1.2-1.8-1.2-3V19.1c0-1.2,0.4-2.1,1.2-3
			c0.8-0.8,1.8-1.2,3-1.2h16V19.3z"/>
		<path class="st0" d="M257.4,14.9v4.4h-14.3v3.5h11.5v4.4h-11.5v3.5h14.3v4.4h-18.7V14.9H257.4z"/>
		<path class="st0" d="M280.4,19.1v5.2c0,1.1-0.4,2.1-1.2,2.9c-0.8,0.8-1.8,1.2-3,1.2H276l4.4,5.2v1.5h-4.5l-5.6-6.7l-5.8,0
			c0.1,0,0.1,0.1,0.1,0.2c0,0-0.1,0-0.1,0v6.5h-4.4V14.9h16.1c1.1,0,2.1,0.4,3,1.2C280,17,280.4,17.9,280.4,19.1z M264.5,19.3v4.8
			H276v-4.8H264.5z"/>
	</g>
	<path class="st1" d="M50,25C50,25,50,25,50,25C50,25,50,25,50,25C50,11.2,38.8,0,25,0S0,11.2,0,25c0,0,0,0,0,0c0,0,0,0,0,0
		c0,0,0,0,0,0c0,0.5,0,1,0.1,1.5c0,0.2,0,0.3,0,0.5c0,0.4,0.1,0.7,0.1,1.1c0,0.2,0,0.3,0.1,0.5c0.1,0.5,0.1,0.9,0.2,1.4
		c0,0,0,0.1,0,0.1c0.1,0.5,0.2,0.9,0.3,1.4c0,0.2,0.1,0.3,0.1,0.5c0.1,0.3,0.2,0.7,0.3,1c0.1,0.2,0.1,0.3,0.2,0.5
		c0.1,0.4,0.3,0.8,0.5,1.2c0,0,0,0.1,0.1,0.1c0.2,0.4,0.4,0.9,0.6,1.3c0.1,0.1,0.1,0.3,0.2,0.4c0.2,0.3,0.3,0.6,0.5,0.9
		c0.1,0.1,0.1,0.3,0.2,0.4c0.2,0.4,0.5,0.8,0.7,1.1c0,0,0,0.1,0.1,0.1c0.3,0.4,0.6,0.8,0.8,1.2c0.1,0.1,0.2,0.2,0.2,0.3
		C5.6,40.7,5.8,41,6,41.3c0.1,0.1,0.2,0.2,0.3,0.3c0.3,0.3,0.6,0.7,0.9,1c0,0,0,0,0,0c0.3,0.3,0.7,0.7,1.1,1
		c0.1,0.1,0.2,0.1,0.3,0.2c0.3,0.3,0.6,0.5,0.9,0.7c0.1,0.1,0.2,0.2,0.3,0.2c0.4,0.3,0.8,0.6,1.2,0.8c0,0,0,0,0,0
		c0.4,0.3,0.8,0.5,1.3,0.8c0,0,0.1,0,0.1,0.1c0,0,0,0-0.1,0c0.1,0.1,0.2,0.1,0.4,0.2l0,0c0,0,0.1,0,0.1,0.1c0.4,0.2,0.8,0.4,1.2,0.6
		c0,0,0.1,0,0.1,0.1c0.4,0.2,0.9,0.4,1.4,0.6c0.1,0,0.2,0.1,0.2,0.1c0.4,0.1,0.7,0.3,1.1,0.4c0.1,0.1,0.3,0.1,0.4,0.2
		c0.3,0.1,0.6,0.2,1,0.3c0.2,0,0.3,0.1,0.5,0.1c0.4,0.1,0.9,0.2,1.3,0.3c0.2,0,0.4,0.1,0.5,0.1c0.3,0.1,0.6,0.1,0.9,0.1
		c0.2,0,0.5,0.1,0.7,0.1c0.2,0,0.5,0.1,0.7,0.1c0.3,0,0.5,0,0.8,0.1c0.3,0,0.5,0,0.8,0c0.2,0,0.4,0,0.6,0c0.1,0,0.2,0,0.3,0
		c0.6,0,1.1,0,1.7-0.1c0.2,0,0.3,0,0.5,0c0.6-0.1,1.2-0.1,1.7-0.2c0.2,0,0.4-0.1,0.5-0.1c0.6-0.1,1.1-0.2,1.7-0.4
		c0.2,0,0.3-0.1,0.5-0.1c0.6-0.2,1.1-0.3,1.7-0.5c0.1,0,0.2-0.1,0.3-0.1c0.5-0.2,1-0.4,1.5-0.6c0.1-0.1,0.2-0.1,0.3-0.2
		c0.5-0.3,1.1-0.5,1.6-0.8c0.1-0.1,0.3-0.1,0.4-0.2c0.5-0.3,1-0.6,1.5-1c0.1-0.1,0.2-0.2,0.3-0.2c0.5-0.4,1-0.7,1.4-1.1
		c0.1-0.1,0.1-0.1,0.2-0.2c0.5-0.4,0.9-0.8,1.4-1.3c0,0,0.1-0.1,0.1-0.1c0.5-0.5,0.9-0.9,1.3-1.4c0.1-0.1,0.1-0.1,0.2-0.2
		c0.4-0.5,0.8-1,1.2-1.5c0-0.1,0.1-0.1,0.1-0.2c0.4-0.5,0.7-1.1,1.1-1.7c0,0,0-0.1,0-0.1c0.7-1.2,1.3-2.5,1.8-3.8c0,0,0,0,0,0
		c0.2-0.7,0.5-1.3,0.7-2c0,0,0-0.1,0-0.1c0.2-0.7,0.4-1.4,0.5-2.1c0,0,0,0,0,0c0,0,0,0,0,0c0,0,0,0,0,0c0,0,0,0,0,0c0,0,0,0,0,0
		c0.1-0.4,0.1-0.8,0.2-1.2c0.1-0.5,0.1-1.1,0.2-1.6c0-0.3,0-0.6,0.1-0.9c0-0.1,0-0.2,0-0.3h0c0-0.1,0-0.3,0-0.4
		C50,25.1,50,25.1,50,25z M0,25.9c0,0.1,0,0.3,0,0.4C0,26.2,0,26.1,0,25.9z M0.1,27.3c0,0.2,0,0.3,0.1,0.5
		C0.1,27.6,0.1,27.4,0.1,27.3z M0.3,28.7c0,0.1,0,0.3,0.1,0.4C0.3,29,0.3,28.8,0.3,28.7z M0.7,30.9c0,0.1,0.1,0.3,0.1,0.4
		C0.8,31.1,0.7,31,0.7,30.9z M1.1,32.2c0,0.1,0.1,0.3,0.1,0.4C1.1,32.5,1.1,32.3,1.1,32.2z M1.5,33.5c0,0,0,0.1,0.1,0.1
		C1.5,33.6,1.5,33.6,1.5,33.5z M3,36.8C3,36.9,3,36.9,3.1,37C3,36.9,3,36.9,3,36.8z M5.6,40.8c0.1,0.1,0.1,0.1,0.2,0.2
		C5.7,40.9,5.7,40.8,5.6,40.8z M9,44.2c0.1,0.1,0.1,0.1,0.2,0.2C9.2,44.3,9.1,44.3,9,44.2z M13,46.9c0.1,0,0.2,0.1,0.2,0.1
		C13.2,47,13.1,47,13,46.9z M16.2,48.4c0.1,0,0.2,0.1,0.4,0.1C16.4,48.5,16.3,48.4,16.2,48.4z M17.5,48.8c0.1,0,0.2,0.1,0.4,0.1
		C17.7,48.9,17.6,48.9,17.5,48.8z M18.8,49.2C18.8,49.2,18.8,49.2,18.8,49.2L18.8,49.2z M22.4,49.9c0,0,0.1,0,0.1,0
		C22.5,49.9,22.5,49.9,22.4,49.9z M25.6,50c0.3,0,0.7,0,1,0C26.3,49.9,26,50,25.6,50z M27.7,49.8c0.4,0,0.8-0.1,1.3-0.2
		C28.6,49.7,28.2,49.8,27.7,49.8z M29.8,49.5c0.5-0.1,1-0.2,1.4-0.3C30.8,49.3,30.3,49.4,29.8,49.5z M32.1,49c0.3-0.1,0.7-0.2,1-0.3
		C32.8,48.8,32.4,48.9,32.1,49z M34.7,48c-0.2,0.1-0.3,0.1-0.5,0.2c0.2-0.1,0.5-0.2,0.7-0.3C34.9,48,34.8,48,34.7,48z M36.6,47.1
		c0.1-0.1,0.3-0.2,0.4-0.2C36.9,47,36.8,47,36.6,47.1z M38.7,45.9c0.1-0.1,0.2-0.2,0.4-0.2C38.9,45.7,38.8,45.8,38.7,45.9z M44.2,41
		c0.1-0.1,0.2-0.3,0.3-0.4C44.4,40.7,44.3,40.8,44.2,41z M45.6,39.2c0.1-0.2,0.3-0.4,0.4-0.6C45.9,38.7,45.7,38.9,45.6,39.2z
		 M48,34.7c-0.1,0.1-0.1,0.3-0.2,0.4c0.1-0.3,0.3-0.7,0.4-1C48.2,34.3,48.1,34.5,48,34.7z M46.8,37.2c0.1-0.2,0.3-0.5,0.4-0.7
		C47,36.7,46.9,37,46.8,37.2z M48.4,33.7c0.2-0.6,0.4-1.1,0.6-1.7C48.8,32.6,48.6,33.1,48.4,33.7z M49.1,31.6
		c0.2-0.6,0.3-1.2,0.4-1.8C49.4,30.4,49.3,31,49.1,31.6z M49.5,29.8c-1.5,6.6-6.4,11.5-13.1,15.4l-8.6-15.2c-1.7,1-3.9,1.1-5.7,0.1
		c0,0,0,0.1,0,0.1l-9.5,16.6c-0.4-0.2-0.8-0.5-1.2-0.7c-7.1-4.7-9.4-12.1-9.4-20.4h17.3c0-0.9,0.2-2.2,0.8-3.1
		c0.5-0.9,1.2-1.9,2.1-2.4L12.5,3.4c0,0,0,0,0,0C20-0.9,28.5,0.6,36.5,5.2l-8.6,15c0,0,0,0.1,0,0.1c1.8,1,2.8,3.1,2.8,5.1
		c0,0,0,0.3,0,0.3H50c0,0.1,0,0.1,0,0.2c0,0.6-0.1,1.2-0.1,1.8c0,0.1,0,0.1,0,0.2c-0.1,0.6-0.1,1.1-0.2,1.6
		C49.6,29.5,49.6,29.6,49.5,29.8z M49.6,29.2c0-0.2,0.1-0.4,0.1-0.6C49.7,28.8,49.7,29,49.6,29.2z M49.9,26.4c0-0.1,0-0.2,0-0.3
		C50,26.2,50,26.3,49.9,26.4z"/>
</g>
</svg>
