<?xml version="1.0" encoding="utf-8"?>
<!-- Generator: Adobe Illustrator 16.0.0, SVG Export Plug-In . SVG Version: 6.00 Build 0)  -->
<!DOCTYPE svg PUBLIC "-//W3C//DTD SVG 1.1//EN" "http://www.w3.org/Graphics/SVG/1.1/DTD/svg11.dtd">
<svg version="1.1" id="Layer_1" xmlns="http://www.w3.org/2000/svg" xmlns:xlink="http://www.w3.org/1999/xlink" x="0px" y="0px"
	 width="30px" height="30px" viewBox="0 0 30 30" style="enable-background:new 0 0 30 30;" xml:space="preserve">
<style type="text/css">
<![CDATA[
	.st0{opacity:0.54;}
]]>
</style>
<path class="st0" d="M30,15L30,15L30,15c0-8.3-6.7-15-15-15C6.7,0,0,6.7,0,15l0,0l0,0l0,0c0,0.3,0,0.6,0.1,0.9c0,0.1,0,0.2,0,0.3
	c0,0.2,0.1,0.4,0.1,0.7c0,0.1,0,0.2,0.1,0.3c0.1,0.3,0.1,0.5,0.1,0.8v0.1c0.1,0.3,0.1,0.5,0.2,0.8c0,0.1,0.1,0.2,0.1,0.3
	c0.1,0.2,0.1,0.4,0.2,0.6c0.1,0.1,0.1,0.2,0.1,0.3c0.1,0.2,0.2,0.5,0.3,0.7c0,0,0,0.1,0.1,0.1c0.1,0.2,0.2,0.5,0.4,0.8
	c0.1,0.1,0.1,0.2,0.1,0.2c0.1,0.2,0.2,0.4,0.3,0.5C2,22.5,2,22.6,2.1,22.7c0.1,0.2,0.3,0.5,0.4,0.7c0,0,0,0.1,0.1,0.1
	c0.2,0.2,0.4,0.5,0.5,0.7c0.1,0.1,0.1,0.1,0.1,0.2c0.2,0.1,0.3,0.3,0.4,0.5c0.1,0.1,0.1,0.1,0.2,0.2c0.2,0.2,0.4,0.4,0.5,0.6l0,0
	C4.5,25.7,4.7,26,5,26.2c0.1,0.1,0.1,0.1,0.2,0.1c0.2,0.2,0.4,0.3,0.5,0.4c0.1,0.1,0.1,0.1,0.2,0.1c0.2,0.2,0.5,0.4,0.7,0.5l0,0
	c0.2,0.2,0.5,0.3,0.8,0.5c0,0,0.1,0,0.1,0.1c0,0,0,0-0.1,0c0.1,0.1,0.1,0.1,0.2,0.1l0,0c0,0,0.1,0,0.1,0.1c0.2,0.1,0.5,0.2,0.7,0.4
	c0,0,0.1,0,0.1,0.1c0.2,0.1,0.5,0.2,0.8,0.4c0.1,0,0.1,0.1,0.1,0.1c0.2,0.1,0.4,0.2,0.7,0.2c0.1,0.1,0.2,0.1,0.2,0.1
	c0.2,0.1,0.4,0.1,0.6,0.2c0.1,0,0.2,0.1,0.3,0.1c0.2,0.1,0.5,0.1,0.8,0.2c0.1,0,0.2,0.1,0.3,0.1c0.2,0.1,0.4,0.1,0.5,0.1
	c0.1,0,0.3,0.1,0.4,0.1c0.1,0,0.3,0.1,0.4,0.1c0.2,0,0.3,0,0.5,0.1c0.2,0,0.3,0,0.5,0c0.1,0,0.2,0,0.4,0c0.1,0,0.1,0,0.2,0
	c0.4,0,0.7,0,1-0.1c0.1,0,0.2,0,0.3,0c0.4-0.1,0.7-0.1,1-0.1c0.1,0,0.2-0.1,0.3-0.1c0.4-0.1,0.7-0.1,1-0.2c0.1,0,0.2-0.1,0.3-0.1
	c0.4-0.1,0.7-0.2,1-0.3c0.1,0,0.1-0.1,0.2-0.1c0.3-0.1,0.6-0.2,0.9-0.4c0.1-0.1,0.1-0.1,0.2-0.1c0.3-0.2,0.7-0.3,1-0.5
	c0.1-0.1,0.2-0.1,0.2-0.1c0.3-0.2,0.6-0.4,0.9-0.6c0.1-0.1,0.1-0.1,0.2-0.1c0.3-0.2,0.6-0.4,0.8-0.7c0.1-0.1,0.1-0.1,0.1-0.1
	c0.3-0.2,0.5-0.5,0.8-0.8l0.1-0.1c0.3-0.3,0.5-0.5,0.8-0.8c0.1-0.1,0.1-0.1,0.1-0.1c0.2-0.3,0.5-0.6,0.7-0.9c0-0.1,0.1-0.1,0.1-0.1
	c0.2-0.3,0.4-0.7,0.7-1v-0.1c0.4-0.7,0.8-1.5,1.1-2.3l0,0c0.1-0.4,0.3-0.8,0.4-1.2V19c0.1-0.4,0.2-0.8,0.3-1.3l0,0l0,0l0,0l0,0l0,0
	c0.1-0.2,0.1-0.5,0.1-0.7c0.1-0.3,0.1-0.7,0.1-1c0-0.2,0-0.4,0.1-0.5c0-0.1,0-0.1,0-0.2l0,0c0-0.1,0-0.2,0-0.2
	C30,15.1,30,15.1,30,15z M0,15.5c0,0.1,0,0.2,0,0.2C0,15.7,0,15.7,0,15.5z M0.1,16.4c0,0.1,0,0.2,0.1,0.3
	C0.1,16.6,0.1,16.4,0.1,16.4z M0.2,17.2c0,0.1,0,0.2,0.1,0.2C0.2,17.4,0.2,17.3,0.2,17.2z M0.4,18.5c0,0.1,0.1,0.2,0.1,0.2
	C0.5,18.7,0.4,18.6,0.4,18.5z M0.7,19.3c0,0.1,0.1,0.2,0.1,0.2C0.7,19.5,0.7,19.4,0.7,19.3z M0.9,20.1C0.9,20.1,0.9,20.2,0.9,20.1
	C0.9,20.2,0.9,20.2,0.9,20.1z M1.8,22.1c0,0.1,0,0.1,0.1,0.1C1.8,22.1,1.8,22.1,1.8,22.1z M3.4,24.5c0.1,0.1,0.1,0.1,0.1,0.1
	C3.4,24.5,3.4,24.5,3.4,24.5z M5.4,26.5c0.1,0.1,0.1,0.1,0.1,0.1C5.5,26.6,5.5,26.6,5.4,26.5z M7.8,28.1c0.1,0,0.1,0.1,0.1,0.1
	S7.9,28.2,7.8,28.1z M9.7,29c0.1,0,0.1,0.1,0.2,0.1C9.8,29.1,9.8,29,9.7,29z M10.5,29.3c0.1,0,0.1,0.1,0.2,0.1
	C10.6,29.3,10.6,29.3,10.5,29.3z M11.3,29.5L11.3,29.5L11.3,29.5z M13.4,29.9L13.4,29.9C13.5,29.9,13.5,29.9,13.4,29.9z M15.4,30
	c0.2,0,0.4,0,0.6,0C15.8,29.9,15.6,30,15.4,30z M16.6,29.9c0.2,0,0.5-0.1,0.8-0.1C17.2,29.8,16.9,29.9,16.6,29.9z M17.9,29.7
	c0.3-0.1,0.6-0.1,0.8-0.2C18.5,29.6,18.2,29.6,17.9,29.7z M19.3,29.4c0.2-0.1,0.4-0.1,0.6-0.2C19.7,29.3,19.4,29.3,19.3,29.4z
	 M20.8,28.8c-0.1,0.1-0.2,0.1-0.3,0.1c0.1-0.1,0.3-0.1,0.4-0.2C20.9,28.8,20.9,28.8,20.8,28.8z M22,28.3c0.1-0.1,0.2-0.1,0.2-0.1
	C22.1,28.2,22.1,28.2,22,28.3z M23.2,27.5c0.1-0.1,0.1-0.1,0.2-0.1C23.3,27.4,23.3,27.5,23.2,27.5z M26.5,24.6
	c0.1-0.1,0.1-0.2,0.2-0.2C26.6,24.4,26.6,24.5,26.5,24.6z M27.4,23.5c0.1-0.1,0.2-0.2,0.2-0.4C27.5,23.2,27.4,23.3,27.4,23.5z
	 M28.8,20.8c-0.1,0.1-0.1,0.2-0.1,0.2c0.1-0.2,0.2-0.4,0.2-0.6C28.9,20.6,28.9,20.7,28.8,20.8z M28.1,22.3c0.1-0.1,0.2-0.3,0.2-0.4
	C28.2,22,28.1,22.2,28.1,22.3z M29,20.2c0.1-0.4,0.2-0.7,0.4-1C29.3,19.6,29.2,19.9,29,20.2z M29.5,19c0.1-0.4,0.2-0.7,0.2-1.1
	C29.6,18.2,29.6,18.6,29.5,19z M29.7,17.9c-0.9,4-3.8,6.9-7.9,9.2L16.7,18c-1,0.6-2.3,0.7-3.4,0.1v0.1l-5.7,10
	c-0.2-0.1-0.5-0.3-0.7-0.4c-4.3-2.8-5.6-7.3-5.6-12.2h10.4c0-0.5,0.1-1.3,0.5-1.9c0.3-0.5,0.7-1.1,1.3-1.4L7.5,2l0,0
	c4.5-2.6,9.6-1.7,14.4,1.1l-5.2,9v0.1c1.1,0.6,1.7,1.9,1.7,3.1v0.2H30c0,0.1,0,0.1,0,0.1c0,0.4-0.1,0.7-0.1,1.1c0,0.1,0,0.1,0,0.1
	c-0.1,0.4-0.1,0.7-0.1,1C29.8,17.7,29.8,17.8,29.7,17.9z M29.8,17.5c0-0.1,0.1-0.2,0.1-0.4C29.8,17.3,29.8,17.4,29.8,17.5z
	 M29.9,15.8c0-0.1,0-0.1,0-0.2C30,15.7,30,15.8,29.9,15.8z"/>
</svg>
